<svg xmlns="http://www.w3.org/2000/svg" width="21" height="21" viewBox="0 0 21 21">
  <path id="Trazado_24904" data-name="Trazado 24904" d="M20.346,2.555l-1.9-1.9a2.232,2.232,0,0,0-3.154,0L1.132,14.811a.627.627,0,0,0-.17.323L.01,20.273a.615.615,0,0,0,.717.717l5.138-.952a.627.627,0,0,0,.323-.17L20.346,5.709A2.229,2.229,0,0,0,20.346,2.555ZM1.383,19.617l.576-3.108,2.533,2.533Zm4.37-1.054L2.437,15.246,14.545,3.137l3.316,3.317ZM19.476,4.839l-.745.745L15.415,2.267l.745-.745a1,1,0,0,1,1.414,0l1.9,1.9A1,1,0,0,1,19.476,4.839Z" transform="translate(0 0)"/>
</svg>
