<svg xmlns="http://www.w3.org/2000/svg" width="24" height="24" viewBox="0 0 24 24">
  <path id="Trazado_15844" data-name="Trazado 15844" d="M12,0A11.994,11.994,0,0,0,2.75,19.635c0,.006,0,.014.01.019A12,12,0,0,0,7.29,23.036l.06.026c.14.059.282.114.425.168l.169.063q.184.066.371.126c.08.026.159.051.24.075q.165.049.332.094c.1.026.2.051.294.074s.2.048.3.069.225.045.339.066c.091.017.182.034.274.049.126.02.253.036.38.053.082.01.164.022.246.031.144.015.289.026.435.036.068,0,.135.012.2.016Q11.675,24,12,24c.216,0,.431-.006.644-.018.068,0,.135-.011.2-.016.146-.01.291-.021.435-.036.082-.009.164-.021.246-.031.127-.016.254-.032.38-.053.092-.015.183-.032.274-.049.113-.021.226-.042.339-.066s.2-.045.3-.069.2-.048.294-.074.222-.062.332-.094c.08-.024.16-.049.24-.075q.187-.06.371-.126l.169-.063c.143-.054.284-.109.425-.168l.06-.026a12,12,0,0,0,4.531-3.381c0-.006.005-.014.01-.019A11.995,11.995,0,0,0,12,0Zm4.863,22.088-.018.009c-.143.069-.288.134-.434.2l-.1.042q-.192.08-.388.153l-.164.06c-.116.041-.232.081-.349.118-.073.023-.146.045-.219.067-.1.031-.208.061-.314.089-.089.024-.178.045-.268.066s-.188.045-.282.065-.208.041-.312.06c-.084.016-.168.032-.254.046-.117.018-.236.033-.354.048-.075.01-.149.021-.225.029-.135.014-.271.024-.406.033-.06,0-.12.011-.182.014q-.3.016-.6.016t-.6-.016c-.061,0-.121-.01-.182-.014-.136-.009-.272-.019-.406-.033-.076-.008-.15-.019-.225-.029-.118-.015-.236-.03-.354-.048-.085-.014-.169-.03-.254-.046-.1-.019-.209-.038-.312-.06s-.189-.043-.282-.065-.179-.043-.268-.066c-.105-.028-.21-.058-.314-.089-.073-.022-.146-.044-.219-.067q-.176-.056-.349-.118l-.164-.06q-.2-.073-.388-.153l-.1-.042c-.146-.063-.292-.128-.435-.2l-.018-.009a11.254,11.254,0,0,1-3.629-2.8,8.829,8.829,0,0,1,5.778-6.056c.056.034.114.064.171.1.034.019.067.039.1.057.119.063.24.122.364.176.095.042.193.077.29.113l.058.021a5.1,5.1,0,0,0,3.46,0l.058-.021c.1-.036.2-.071.29-.113.124-.053.244-.112.364-.176l.1-.057c.057-.032.116-.062.172-.1a8.831,8.831,0,0,1,5.778,6.056A11.265,11.265,0,0,1,16.863,22.088ZM7.6,8.8a4.4,4.4,0,1,1,6.794,3.687,4.237,4.237,0,0,1-.49.274l-.06.029a4.5,4.5,0,0,1-3.688,0l-.06-.029a4.2,4.2,0,0,1-.49-.274A4.4,4.4,0,0,1,7.6,8.8Zm13.492,9.729a9.638,9.638,0,0,0-5.619-5.87,5.2,5.2,0,1,0-6.945,0,9.639,9.639,0,0,0-5.619,5.87A11.2,11.2,0,1,1,23.2,12,11.137,11.137,0,0,1,21.092,18.529Z" fill="#fff"/>
</svg>
