<svg xmlns="http://www.w3.org/2000/svg" width="17" height="22.688" viewBox="0 0 17 22.688">
  <g id="desbloquear" transform="translate(-64.183)">
    <g id="Grupo_24949" data-name="Grupo 24949" transform="translate(66.419)">
      <g id="Grupo_24948" data-name="Grupo 24948" transform="translate(0)">
        <path id="Trazado_24905" data-name="Trazado 24905" d="M118.911,0a6.453,6.453,0,0,0-6.264,6.614V9.852a.389.389,0,0,0,.378.4h2.1a.389.389,0,0,0,.378-.4V6.614a3.412,3.412,0,1,1,6.815,0V9.852a.389.389,0,0,0,.378.4h2.1a.389.389,0,0,0,.378-.4V6.614A6.453,6.453,0,0,0,118.911,0Zm5.508,9.453h-1.344V6.614a4.17,4.17,0,1,0-8.328,0V9.453H113.4V6.614a5.516,5.516,0,1,1,11.015,0Z" transform="translate(-112.647)"/>
      </g>
    </g>
    <g id="Grupo_24951" data-name="Grupo 24951" transform="translate(64.183 8.52)">
      <g id="Grupo_24950" data-name="Grupo 24950" transform="translate(0)">
        <path id="Trazado_24906" data-name="Trazado 24906" d="M79.535,204.89h-13.7a1.685,1.685,0,0,0-1.648,1.716v10.737a1.685,1.685,0,0,0,1.648,1.716h13.7a1.685,1.685,0,0,0,1.648-1.716V206.606A1.685,1.685,0,0,0,79.535,204.89Zm.881,12.453a.9.9,0,0,1-.881.917h-13.7a.9.9,0,0,1-.881-.917V206.606a.9.9,0,0,1,.881-.917h13.7a.9.9,0,0,1,.881.917Z" transform="translate(-64.183 -204.89)"/>
      </g>
    </g>
    <g id="Grupo_24953" data-name="Grupo 24953" transform="translate(70.602 12.672)">
      <g id="Grupo_24952" data-name="Grupo 24952" transform="translate(0)">
        <path id="Trazado_24907" data-name="Trazado 24907" d="M214.313,293.974a2.081,2.081,0,1,0-2.686,0l-.449,2.139a.4.4,0,0,0,.391.481h2.8a.4.4,0,0,0,.391-.481Zm-.658-.506a.4.4,0,0,0-.176.419l.4,1.908h-1.818l.4-1.908a.4.4,0,0,0-.176-.419,1.282,1.282,0,1,1,1.37,0Z" transform="translate(-210.889 -290.307)"/>
      </g>
    </g>
  </g>
</svg>
