<svg xmlns="http://www.w3.org/2000/svg" width="18.345" height="22.379" viewBox="0 0 18.345 22.379">
  <g id="Grupo_24955" data-name="Grupo 24955" transform="translate(-9.565 -7.417)">
    <g id="Grupo_14377" data-name="Grupo 14377" transform="translate(9.565 7.417)">
      <path id="Trazado_14467" data-name="Trazado 14467" d="M993.093,58.575a4.966,4.966,0,0,1-1.467,3.508l-.033.031-.047,0a2,2,0,0,0,.115,4h4.085l.01.111a3.093,3.093,0,0,0,6.162,0l.01-.111h4.085a2,2,0,0,0,2-2,1.943,1.943,0,0,0-1.881-1.951h-.048l-.033-.034a4.949,4.949,0,0,1-1.465-3.508V56.01a5.8,5.8,0,0,0-3.7-5.366l-.13-.05.067-.121a3.272,3.272,0,0,0,.381-1.3,2.37,2.37,0,0,0-2.224-2.5q-.07,0-.141,0a2.37,2.37,0,0,0-2.359,2.232,2.307,2.307,0,0,0,0,.232,2.991,2.991,0,0,0,.363,1.3l.067.123-.129.05a5.791,5.791,0,0,0-3.683,5.36Zm7.559,7.732a1.876,1.876,0,0,1-1.811,1.533h0a1.877,1.877,0,0,1-1.814-1.533L997,66.163h3.682Zm5.36-2.889a.745.745,0,0,1,0,1.49H991.659a.745.745,0,0,1,0-1.49Zm-7.176-15.394.132,0v.018a1.136,1.136,0,0,1,.982,1.1,3.089,3.089,0,0,1-.4,1.085l-.041.065-.076-.008c-.308-.029-.578-.037-.807-.042a3.575,3.575,0,0,0-.394.022l-.077.009-.04-.067a2.841,2.841,0,0,1-.388-1.043A1.138,1.138,0,0,1,998.835,48.024Zm-5.48,13.949a6.216,6.216,0,0,0,.989-3.354V56.01a4.511,4.511,0,0,1,4.494-4.5h0a4.512,4.512,0,0,1,4.494,4.5v2.611a6.206,6.206,0,0,0,.987,3.353l.12.188h-11.2Z" transform="translate(-989.666 -46.671)"/>
    </g>
  </g>
</svg>
